<?xml version="1.0" encoding="UTF-8" standalone="no"?>
<!DOCTYPE svg PUBLIC "-//W3C//DTD SVG 1.1//EN" "http://www.w3.org/Graphics/SVG/1.1/DTD/svg11.dtd">
<svg width="100%" height="100%" viewBox="0 0 72 72" version="1.1" xmlns="http://www.w3.org/2000/svg" xmlns:xlink="http://www.w3.org/1999/xlink" xml:space="preserve" xmlns:serif="http://www.serif.com/" style="fill-rule:evenodd;clip-rule:evenodd;stroke-linejoin:round;stroke-miterlimit:2;">
    <g id="Artboard1" transform="matrix(1.10769,0,0,1,0,0)">
        <rect x="0" y="0" width="65" height="72" style="fill:none;"/>
        <clipPath id="_clip1">
            <rect x="0" y="0" width="65" height="72"/>
        </clipPath>
        <g clip-path="url(#_clip1)">
            <g transform="matrix(0.902778,0,0,1,0,0)">
                <path d="M54.574,0C59.195,-0 63.628,1.836 66.896,5.104C70.164,8.372 72,12.805 72,17.426L72,54.574C72,59.195 70.164,63.628 66.896,66.896C63.628,70.164 59.195,72 54.574,72L17.426,72C12.805,72 8.372,70.164 5.104,66.896C1.836,63.628 -0,59.195 -0,54.574L0,17.426C-0,12.805 1.836,8.372 5.104,5.104C8.372,1.836 12.805,-0 17.426,0L54.574,0Z" style="fill:white;"/>
            </g>
            <g transform="matrix(-3.03649,0.0164797,0.0148775,3.3635,253.177,-622.331)">
                <path d="M79.099,199.221C79.001,199.394 78.946,199.593 78.947,199.803C78.95,200.46 79.498,200.995 80.175,200.991C80.853,200.988 81.396,200.448 81.393,199.791C81.389,199.135 80.842,198.6 80.164,198.603C79.94,198.605 79.731,198.664 79.551,198.767L78.295,197.591C78.503,197.313 78.645,196.986 78.699,196.631L79.47,196.631C79.61,196.984 79.961,197.236 80.374,197.234C80.909,197.232 81.336,196.804 81.334,196.287C81.331,195.769 80.9,195.346 80.365,195.348C79.94,195.35 79.583,195.621 79.456,195.991L78.699,195.991C78.539,194.928 77.59,194.114 76.449,194.119C75.942,194.122 75.474,194.286 75.097,194.562L71.459,191.076C71.814,190.626 72.024,190.063 72.021,189.453C72.014,187.994 70.789,186.81 69.282,186.818C67.774,186.825 66.562,188.021 66.569,189.48C66.576,190.939 67.8,192.123 69.308,192.116C69.952,192.113 70.542,191.893 71.006,191.528L74.639,195.01C74.421,195.295 74.273,195.634 74.219,196.002L69.346,196.026C69.188,195.246 68.48,194.656 67.63,194.66C66.667,194.665 65.894,195.431 65.899,196.363C65.903,197.295 66.684,198.053 67.647,198.048C68.497,198.044 69.199,197.447 69.349,196.666L74.223,196.642C74.28,197.009 74.432,197.346 74.653,197.629L71.992,200.229C71.71,200.04 71.367,199.929 70.998,199.931C70.035,199.936 69.262,200.701 69.266,201.633C69.271,202.565 70.051,203.324 71.014,203.319C71.978,203.314 72.751,202.548 72.746,201.616C72.744,201.269 72.635,200.946 72.449,200.678L75.115,198.072C75.417,198.289 75.776,198.434 76.166,198.483L76.179,201.059C75.511,201.205 75.015,201.79 75.019,202.481C75.023,203.278 75.69,203.928 76.514,203.924C77.338,203.919 77.998,203.264 77.995,202.466C77.991,201.775 77.489,201.195 76.819,201.055L76.806,198.476C77.193,198.418 77.547,198.266 77.842,198.044L79.099,199.221Z"/>
            </g>
        </g>
    </g>
</svg>
